<svg class="icon" viewBox="0 0 1228 1024" xmlns="http://www.w3.org/2000/svg" width="38.375" height="32"><defs><style/></defs><path d="M784.639 64.002l74.88 81.92 19.2 20.48h222.079a64 64 0 0164 64V896a64 64 0 01-64 64H128a64 64 0 01-64-64V230.401a64 64 0 0164-64h222.08l19.2-20.48 74.88-81.92h341.119m-170.88 787.2a288 288 0 10-288-288 288.64 288.64 0 00288 288M801.919 0h-375.04a25.6 25.6 0 00-19.2 8.32L320 102.402H128a128 128 0 00-128 128v665.6A128 128 0 00128 1024h972.798a128 128 0 00128-128V230.401a128 128 0 00-128-128h-192l-88.32-94.08a25.6 25.6 0 00-19.2-8.32zm-187.52 787.2a224 224 0 11224-224 224 224 0 01-224 224z"/><path d="M993.918 314.241a38.4 38.4 0 1076.8 0 38.4 38.4 0 10-76.8 0z"/></svg>