<?xml version="1.0" standalone="no"?><!DOCTYPE svg PUBLIC "-//W3C//DTD SVG 1.1//EN" "http://www.w3.org/Graphics/SVG/1.1/DTD/svg11.dtd"><svg t="1573043851001" class="icon" viewBox="0 0 1228 1024" version="1.1" xmlns="http://www.w3.org/2000/svg" p-id="716" xmlns:xlink="http://www.w3.org/1999/xlink" width="38.375" height="32"><defs><style type="text/css"></style></defs><path d="M784.638529 64.0018l74.879859 81.919846 19.199964 20.479962h222.079584a63.99988 63.99988 0 0 1 63.99988 63.99988V896.00024a63.99988 63.99988 0 0 1-63.99988 63.99988H127.99976a63.99988 63.99988 0 0 1-63.99988-63.99988V230.401488a63.99988 63.99988 0 0 1 63.99988-63.99988h222.079584l19.199964-20.479962L444.159167 64.0018h341.119361M614.398848 851.200324a287.99946 287.99946 0 1 0-287.99946-287.99946 288.639459 288.639459 0 0 0 287.99946 287.99946M801.918496 0.00192H426.8792a25.599952 25.599952 0 0 0-19.199964 8.319984L319.9994 102.401728H127.99976a127.99976 127.99976 0 0 0-127.99976 127.99976V896.00024a127.99976 127.99976 0 0 0 127.99976 127.99976h972.798176a127.99976 127.99976 0 0 0 127.99976-127.99976V230.401488a127.99976 127.99976 0 0 0-127.99976-127.99976h-191.99964L820.478462 8.321904a25.599952 25.599952 0 0 0-19.199964-8.319984zM614.398848 787.200444a223.99958 223.99958 0 1 1 223.99958-223.99958 223.99958 223.99958 0 0 1-223.99958 223.99958z" fill="#ffffff" p-id="717"></path><path d="M1032.318064 314.241331m-38.399928 0a38.399928 38.399928 0 1 0 76.799856 0 38.399928 38.399928 0 1 0-76.799856 0Z" fill="#ffffff" p-id="718"></path></svg>