<svg class="icon" viewBox="0 0 1024 1024" xmlns="http://www.w3.org/2000/svg" width="32" height="32"><defs><style/></defs><path d="M512 983.21l-15.65-7.048c-4.898-2.27-122.573-55.671-241.562-153.873-70.724-58.42-127.351-120.542-168.09-184.815-52.326-82.312-78.847-168.209-78.847-255.3 0-67.14 16.247-129.621 47.07-180.753 29.866-49.698 72.874-88.167 124.125-111.224 53.76-24.132 114.569-30.464 175.736-18.278C408.9 82.79 462.66 108.237 511.88 146.227c49.22-37.99 102.98-63.437 157.098-74.308 61.167-12.186 121.976-5.973 175.736 18.278 51.37 23.057 94.259 61.526 124.126 111.224 30.822 51.132 47.07 113.732 47.07 180.753 0 87.091-26.522 172.988-78.73 255.3-40.857 64.273-97.364 126.396-168.089 184.815-118.87 98.202-236.424 151.603-241.442 153.873L512 983.211zm-15.65-76.816zM294.212 142.165c-29.03 0-57.344 5.854-83.746 17.681C131.5 195.328 84.31 278.476 84.31 382.174c0 72.038 22.34 143.957 66.424 213.487 36.318 57.344 87.21 113.374 151.364 166.536 86.852 71.92 174.9 119.109 209.903 136.67 35.004-17.442 123.05-64.75 209.903-136.67 64.154-53.162 115.166-109.192 151.364-166.536 44.083-69.65 66.424-141.449 66.424-213.487 0-103.697-47.19-186.727-126.157-222.208-84.702-37.99-187.921-13.978-276.207 64.512L512 246.938l-25.446-22.58c-60.57-53.88-128.427-82.193-192.342-82.193z"/></svg>