<svg class="icon" viewBox="0 0 1024 1024" xmlns="http://www.w3.org/2000/svg" width="32" height="32"><defs><style/></defs><path d="M646.18 454.759c0 33.894 27.594 61.468 61.488 61.468 33.93 0 61.523-27.574 61.523-61.468 0-33.894-27.594-61.487-61.523-61.487-33.894.001-61.488 27.594-61.488 61.487"/><path d="M1020.82 147.255c0-49.32-40.122-89.443-89.48-89.443H92.658c-49.319 0-89.478 40.122-89.478 89.443v615.063c0 49.319 40.158 89.44 89.478 89.44h304.825l114.499 114.429 114.463-114.429h304.897c49.357 0 89.478-40.121 89.478-89.44V662.12l-.108-1.556.108-513.31zm-67.1 587.107c0 27.775-22.523 50.3-50.297 50.3H593.855l-81.874 81.907-81.836-81.908H120.612c-27.774 0-50.334-22.524-50.334-50.299V175.21c0-27.774 22.56-50.352 50.334-50.352h782.81c27.775 0 50.298 22.578 50.298 50.352v559.152z"/><path d="M450.495 454.759c0 33.894 27.593 61.468 61.486 61.468 33.895 0 61.487-27.574 61.487-61.468 0-33.894-27.592-61.487-61.487-61.487-33.893.001-61.486 27.594-61.486 61.487m-195.684 0c0 33.894 27.593 61.468 61.487 61.468 33.894 0 61.486-27.574 61.486-61.468 0-33.894-27.592-61.487-61.486-61.487-33.895.001-61.487 27.594-61.487 61.487"/></svg>