<svg class="icon" viewBox="0 0 1024 1024" xmlns="http://www.w3.org/2000/svg" width="32" height="32"><defs><style/></defs><path d="M997.24 343.84c-20.852-25.819-53.35-40.59-89.102-40.59H687.374c31-89.96 7.193-194.047 5.823-199.784a41.403 41.403 0 00-6.594-14.258 128.193 128.193 0 00-120.57-85.677 128.237 128.237 0 00-127.726 121.386h-.728v28.473a148.96 148.96 0 01-50.823 111.58c-21.41 19.012-48.04 31.814-77.628 36.096v687.253h514.018c43.287 0 84.348-33.398 93.51-76l101.562-473.94c7.364-34.469-.256-68.892-20.98-94.539M95.303 303.248c-47.356 0-85.892 38.536-85.892 85.933v513.203c0 47.355 38.322 85.934 85.42 85.934h128.665V303.25H95.303z"/></svg>